<svg width="1102" height="336" viewBox="0 0 1102 336" fill="none" xmlns="http://www.w3.org/2000/svg">
<g filter="url(#filter0_d_48_23)">
<path d="M9.48 183.36C8.184 183.36 7.176 183.108 6.456 182.604C5.736 182.1 5.208 181.452 4.872 180.66C4.56 179.868 4.368 179.04 4.296 178.176C4.224 177.288 4.188 176.484 4.188 175.764V168.204H7.752V175.764C7.752 176.508 7.824 177.216 7.968 177.888C8.112 178.56 8.412 179.1 8.868 179.508C9.348 179.916 10.068 180.12 11.028 180.12C11.964 180.12 12.672 179.916 13.152 179.508C13.632 179.076 13.956 178.536 14.124 177.888C14.292 177.24 14.388 176.568 14.412 175.872L14.448 168.204H18.192V183H15.06L14.448 180.192H14.376C14.328 180.336 14.208 180.576 14.016 180.912C13.824 181.248 13.536 181.608 13.152 181.992C12.792 182.376 12.312 182.7 11.712 182.964C11.112 183.228 10.368 183.36 9.48 183.36ZM30.7537 183L36.1538 175.368L31.0417 168.204H35.0738L38.4578 173.244L41.8418 168.204H45.9098L40.7978 175.368L46.2338 183H42.2018L38.4578 177.564L34.7857 183H30.7537ZM84.612 183.36C82.404 183.36 80.832 182.676 79.896 181.308C78.96 179.916 78.492 178.104 78.492 175.872C78.492 173.544 78.972 171.684 79.932 170.292C80.892 168.9 82.452 168.204 84.612 168.204C85.548 168.204 86.328 168.36 86.952 168.672C87.6 168.96 88.104 169.308 88.464 169.716C88.848 170.124 89.124 170.496 89.292 170.832C89.46 171.168 89.556 171.372 89.58 171.444H89.652V162.732H93.432V183H90.264L89.652 180.372H89.58C89.556 180.42 89.448 180.6 89.256 180.912C89.088 181.224 88.8 181.572 88.392 181.956C88.008 182.34 87.504 182.676 86.88 182.964C86.256 183.228 85.5 183.36 84.612 183.36ZM85.8 180.264C87.168 180.264 88.14 179.856 88.716 179.04C89.316 178.2 89.616 177.132 89.616 175.836C89.616 174.588 89.328 173.556 88.752 172.74C88.2 171.9 87.252 171.48 85.908 171.48C84.924 171.48 84.144 171.696 83.568 172.128C83.016 172.536 82.632 173.076 82.416 173.748C82.2 174.396 82.092 175.092 82.092 175.836C82.092 176.58 82.188 177.3 82.38 177.996C82.596 178.668 82.968 179.22 83.496 179.652C84.048 180.06 84.816 180.264 85.8 180.264ZM114.56 183.36C112.856 183.36 111.464 183 110.384 182.28C109.328 181.536 108.536 180.6 108.008 179.472C107.504 178.32 107.24 177.108 107.216 175.836C107.192 174.348 107.468 173.028 108.044 171.876C108.644 170.7 109.484 169.788 110.564 169.14C111.668 168.468 112.964 168.132 114.452 168.132C115.772 168.132 116.948 168.42 117.98 168.996C119.036 169.572 119.876 170.388 120.5 171.444C121.124 172.476 121.448 173.7 121.472 175.116C121.472 175.164 121.472 175.296 121.472 175.512C121.472 175.728 121.472 175.908 121.472 176.052H110.708C110.708 177.42 111.044 178.476 111.716 179.22C112.388 179.94 113.312 180.3 114.488 180.3C115.4 180.3 116.156 180.072 116.756 179.616C117.38 179.16 117.752 178.56 117.872 177.816H121.436C121.268 179.376 120.596 180.696 119.42 181.776C118.244 182.832 116.624 183.36 114.56 183.36ZM110.816 174.396H117.8C117.776 174.228 117.716 173.964 117.62 173.604C117.548 173.244 117.392 172.872 117.152 172.488C116.936 172.104 116.6 171.78 116.144 171.516C115.688 171.252 115.1 171.12 114.38 171.12C113.42 171.12 112.688 171.324 112.184 171.732C111.704 172.116 111.356 172.572 111.14 173.1C110.948 173.604 110.84 174.036 110.816 174.396ZM141.665 183.36C141.041 183.36 140.345 183.252 139.577 183.036C138.833 182.82 138.113 182.496 137.417 182.064C136.745 181.632 136.181 181.08 135.725 180.408C135.293 179.712 135.077 178.896 135.077 177.96H138.461C138.461 178.008 138.473 178.176 138.497 178.464C138.521 178.728 138.617 179.04 138.785 179.4C138.977 179.736 139.289 180.036 139.721 180.3C140.153 180.564 140.777 180.696 141.593 180.696C142.553 180.696 143.273 180.528 143.753 180.192C144.233 179.832 144.473 179.424 144.473 178.968C144.473 178.44 144.245 178.032 143.789 177.744C143.357 177.432 142.793 177.18 142.097 176.988C141.401 176.796 140.657 176.604 139.865 176.412C139.097 176.196 138.365 175.92 137.669 175.584C136.997 175.248 136.445 174.792 136.013 174.216C135.581 173.616 135.365 172.848 135.365 171.912C135.365 170.544 135.917 169.512 137.021 168.816C138.125 168.096 139.529 167.736 141.233 167.736C142.433 167.736 143.549 167.928 144.581 168.312C145.613 168.672 146.441 169.26 147.065 170.076C147.689 170.868 148.001 171.912 148.001 173.208H144.617C144.641 172.464 144.473 171.912 144.113 171.552C143.777 171.168 143.345 170.904 142.817 170.76C142.313 170.616 141.821 170.544 141.341 170.544C140.477 170.544 139.817 170.7 139.361 171.012C138.929 171.3 138.713 171.684 138.713 172.164C138.713 172.716 138.929 173.148 139.361 173.46C139.817 173.748 140.393 173.988 141.089 174.18C141.809 174.372 142.553 174.576 143.321 174.792C144.113 174.984 144.857 175.248 145.553 175.584C146.273 175.92 146.849 176.376 147.281 176.952C147.737 177.504 147.965 178.248 147.965 179.184C147.965 180.6 147.377 181.656 146.201 182.352C145.049 183.024 143.537 183.36 141.665 183.36ZM163.986 166.584C163.194 166.608 162.666 166.428 162.402 166.044C162.162 165.636 162.042 165.156 162.042 164.604C162.042 164.076 162.174 163.62 162.438 163.236C162.702 162.852 163.218 162.66 163.986 162.66C164.73 162.66 165.222 162.852 165.462 163.236C165.726 163.62 165.858 164.076 165.858 164.604C165.858 165.156 165.726 165.624 165.462 166.008C165.222 166.368 164.73 166.56 163.986 166.584ZM162.114 183V168.204H165.786V183H162.114ZM184.291 189.588V186.132H190.771V180.372H190.699C190.675 180.42 190.567 180.6 190.375 180.912C190.207 181.224 189.931 181.572 189.547 181.956C189.163 182.34 188.659 182.676 188.035 182.964C187.435 183.228 186.679 183.36 185.767 183.36C183.583 183.36 182.011 182.664 181.051 181.272C180.091 179.88 179.611 178.068 179.611 175.836C179.611 173.508 180.091 171.66 181.051 170.292C182.035 168.9 183.607 168.204 185.767 168.204C186.727 168.204 187.519 168.36 188.143 168.672C188.767 168.96 189.259 169.308 189.619 169.716C189.979 170.124 190.231 170.496 190.375 170.832C190.543 171.168 190.639 171.372 190.663 171.444H190.735L190.771 168.204H194.551V184.26C194.551 186.228 194.155 187.608 193.363 188.4C192.595 189.192 191.395 189.588 189.763 189.588H184.291ZM186.919 180.264C188.263 180.264 189.235 179.856 189.835 179.04C190.435 178.2 190.735 177.132 190.735 175.836C190.735 174.588 190.447 173.556 189.871 172.74C189.295 171.9 188.335 171.48 186.991 171.48C186.007 171.48 185.239 171.696 184.687 172.128C184.135 172.536 183.739 173.076 183.499 173.748C183.283 174.396 183.175 175.092 183.175 175.836C183.175 176.58 183.271 177.3 183.463 177.996C183.679 178.668 184.051 179.22 184.579 179.652C185.131 180.06 185.911 180.264 186.919 180.264ZM208.397 183V168.276H211.529L212.141 171.408H212.213C212.237 171.336 212.321 171.144 212.465 170.832C212.633 170.496 212.897 170.124 213.257 169.716C213.641 169.308 214.145 168.96 214.769 168.672C215.417 168.36 216.221 168.204 217.181 168.204C218.501 168.204 219.521 168.468 220.241 168.996C220.961 169.524 221.477 170.196 221.789 171.012C222.101 171.804 222.293 172.632 222.365 173.496C222.437 174.36 222.473 175.14 222.473 175.836V183H218.873V175.8C218.873 175.008 218.801 174.288 218.657 173.64C218.513 172.968 218.201 172.44 217.721 172.056C217.265 171.648 216.581 171.444 215.669 171.444C214.709 171.444 213.977 171.66 213.473 172.092C212.969 172.524 212.621 173.088 212.429 173.784C212.237 174.456 212.141 175.176 212.141 175.944V183H208.397ZM243.239 183.36C241.535 183.36 240.143 183 239.063 182.28C238.007 181.536 237.215 180.6 236.687 179.472C236.183 178.32 235.919 177.108 235.895 175.836C235.871 174.348 236.147 173.028 236.723 171.876C237.323 170.7 238.163 169.788 239.243 169.14C240.347 168.468 241.643 168.132 243.131 168.132C244.451 168.132 245.627 168.42 246.659 168.996C247.715 169.572 248.555 170.388 249.179 171.444C249.803 172.476 250.127 173.7 250.151 175.116C250.151 175.164 250.151 175.296 250.151 175.512C250.151 175.728 250.151 175.908 250.151 176.052H239.387C239.387 177.42 239.723 178.476 240.395 179.22C241.067 179.94 241.991 180.3 243.167 180.3C244.079 180.3 244.835 180.072 245.435 179.616C246.059 179.16 246.431 178.56 246.551 177.816H250.115C249.947 179.376 249.275 180.696 248.099 181.776C246.923 182.832 245.303 183.36 243.239 183.36ZM239.495 174.396H246.479C246.455 174.228 246.395 173.964 246.299 173.604C246.227 173.244 246.071 172.872 245.831 172.488C245.615 172.104 245.279 171.78 244.823 171.516C244.367 171.252 243.779 171.12 243.059 171.12C242.099 171.12 241.367 171.324 240.863 171.732C240.383 172.116 240.035 172.572 239.819 173.1C239.627 173.604 239.519 174.036 239.495 174.396ZM264.296 183V168.204H267.716L267.968 172.308C268.112 171.684 268.388 171.06 268.796 170.436C269.228 169.788 269.816 169.26 270.56 168.852C271.328 168.42 272.312 168.204 273.512 168.204H274.052V172.308H273.512C271.448 172.308 270.008 172.644 269.192 173.316C268.376 173.964 267.968 175.068 267.968 176.628V183H264.296ZM307.267 188.436V161.364H310.939V188.436H307.267ZM326.408 188.436V161.364H330.08V188.436H326.408ZM367.86 189.588V186.132H374.34V180.372H374.268C374.244 180.42 374.136 180.6 373.944 180.912C373.776 181.224 373.5 181.572 373.116 181.956C372.732 182.34 372.228 182.676 371.604 182.964C371.004 183.228 370.248 183.36 369.336 183.36C367.152 183.36 365.58 182.664 364.62 181.272C363.66 179.88 363.18 178.068 363.18 175.836C363.18 173.508 363.66 171.66 364.62 170.292C365.604 168.9 367.176 168.204 369.336 168.204C370.296 168.204 371.088 168.36 371.712 168.672C372.336 168.96 372.828 169.308 373.188 169.716C373.548 170.124 373.8 170.496 373.944 170.832C374.112 171.168 374.208 171.372 374.232 171.444H374.304L374.34 168.204H378.12V184.26C378.12 186.228 377.724 187.608 376.932 188.4C376.164 189.192 374.964 189.588 373.332 189.588H367.86ZM370.488 180.264C371.832 180.264 372.804 179.856 373.404 179.04C374.004 178.2 374.304 177.132 374.304 175.836C374.304 174.588 374.016 173.556 373.44 172.74C372.864 171.9 371.904 171.48 370.56 171.48C369.576 171.48 368.808 171.696 368.256 172.128C367.704 172.536 367.308 173.076 367.068 173.748C366.852 174.396 366.744 175.092 366.744 175.836C366.744 176.58 366.84 177.3 367.032 177.996C367.248 178.668 367.62 179.22 368.148 179.652C368.7 180.06 369.48 180.264 370.488 180.264ZM398.878 183.36C397.174 183.36 395.782 183 394.702 182.28C393.646 181.536 392.854 180.6 392.326 179.472C391.822 178.32 391.558 177.108 391.534 175.836C391.51 174.348 391.786 173.028 392.362 171.876C392.962 170.7 393.802 169.788 394.882 169.14C395.986 168.468 397.282 168.132 398.77 168.132C400.09 168.132 401.266 168.42 402.298 168.996C403.354 169.572 404.194 170.388 404.818 171.444C405.442 172.476 405.766 173.7 405.79 175.116C405.79 175.164 405.79 175.296 405.79 175.512C405.79 175.728 405.79 175.908 405.79 176.052H395.026C395.026 177.42 395.362 178.476 396.034 179.22C396.706 179.94 397.63 180.3 398.806 180.3C399.718 180.3 400.474 180.072 401.074 179.616C401.698 179.16 402.07 178.56 402.19 177.816H405.754C405.586 179.376 404.914 180.696 403.738 181.776C402.562 182.832 400.942 183.36 398.878 183.36ZM395.134 174.396H402.118C402.094 174.228 402.034 173.964 401.938 173.604C401.866 173.244 401.71 172.872 401.47 172.488C401.254 172.104 400.918 171.78 400.462 171.516C400.006 171.252 399.418 171.12 398.698 171.12C397.738 171.12 397.006 171.324 396.502 171.732C396.022 172.116 395.674 172.572 395.458 173.1C395.266 173.604 395.158 174.036 395.134 174.396ZM419.755 183V168.276H422.887L423.499 171.408H423.571C423.595 171.336 423.679 171.144 423.823 170.832C423.991 170.496 424.255 170.124 424.615 169.716C424.999 169.308 425.503 168.96 426.127 168.672C426.775 168.36 427.579 168.204 428.539 168.204C429.859 168.204 430.879 168.468 431.599 168.996C432.319 169.524 432.835 170.196 433.147 171.012C433.459 171.804 433.651 172.632 433.723 173.496C433.795 174.36 433.831 175.14 433.831 175.836V183H430.231V175.8C430.231 175.008 430.159 174.288 430.015 173.64C429.871 172.968 429.559 172.44 429.079 172.056C428.623 171.648 427.939 171.444 427.027 171.444C426.067 171.444 425.335 171.66 424.831 172.092C424.327 172.524 423.979 173.088 423.787 173.784C423.595 174.456 423.499 175.176 423.499 175.944V183H419.755ZM454.597 183.36C452.893 183.36 451.501 183 450.421 182.28C449.365 181.536 448.573 180.6 448.045 179.472C447.541 178.32 447.277 177.108 447.253 175.836C447.229 174.348 447.505 173.028 448.081 171.876C448.681 170.7 449.521 169.788 450.601 169.14C451.705 168.468 453.001 168.132 454.489 168.132C455.809 168.132 456.985 168.42 458.017 168.996C459.073 169.572 459.913 170.388 460.537 171.444C461.161 172.476 461.485 173.7 461.509 175.116C461.509 175.164 461.509 175.296 461.509 175.512C461.509 175.728 461.509 175.908 461.509 176.052H450.745C450.745 177.42 451.081 178.476 451.753 179.22C452.425 179.94 453.349 180.3 454.525 180.3C455.437 180.3 456.193 180.072 456.793 179.616C457.417 179.16 457.789 178.56 457.909 177.816H461.473C461.305 179.376 460.633 180.696 459.457 181.776C458.281 182.832 456.661 183.36 454.597 183.36ZM450.853 174.396H457.837C457.813 174.228 457.753 173.964 457.657 173.604C457.585 173.244 457.429 172.872 457.189 172.488C456.973 172.104 456.637 171.78 456.181 171.516C455.725 171.252 455.137 171.12 454.417 171.12C453.457 171.12 452.725 171.324 452.221 171.732C451.741 172.116 451.393 172.572 451.177 173.1C450.985 173.604 450.877 174.036 450.853 174.396ZM475.654 183V168.204H479.074L479.326 172.308C479.47 171.684 479.746 171.06 480.154 170.436C480.586 169.788 481.174 169.26 481.918 168.852C482.686 168.42 483.67 168.204 484.87 168.204H485.41V172.308H484.87C482.806 172.308 481.366 172.644 480.55 173.316C479.734 173.964 479.326 175.068 479.326 176.628V183H475.654ZM503.874 183.36C501.834 183.36 500.382 182.664 499.518 181.272C498.654 179.88 498.222 178.056 498.222 175.8C498.222 173.52 498.654 171.684 499.518 170.292C500.406 168.876 501.858 168.168 503.874 168.168C505.026 168.168 505.938 168.372 506.61 168.78C507.282 169.164 507.786 169.596 508.122 170.076C508.458 170.556 508.662 170.916 508.734 171.156H508.806V168.204H512.586V183H509.418L508.806 180.588H508.734C508.662 180.804 508.446 181.14 508.086 181.596C507.75 182.028 507.234 182.436 506.538 182.82C505.866 183.18 504.978 183.36 503.874 183.36ZM505.386 180.264C506.73 180.264 507.63 179.844 508.086 179.004C508.566 178.14 508.806 177.084 508.806 175.836C508.806 174.516 508.566 173.448 508.086 172.632C507.606 171.816 506.706 171.408 505.386 171.408C504.45 171.408 503.718 171.612 503.19 172.02C502.686 172.428 502.326 172.968 502.11 173.64C501.918 174.288 501.822 175.02 501.822 175.836C501.822 176.652 501.918 177.396 502.11 178.068C502.326 178.74 502.686 179.28 503.19 179.688C503.718 180.072 504.45 180.264 505.386 180.264ZM526.666 183V162.732H530.266V183H526.666ZM568.572 183.36C566.532 183.36 565.08 182.664 564.216 181.272C563.352 179.88 562.92 178.056 562.92 175.8C562.92 173.52 563.352 171.684 564.216 170.292C565.104 168.876 566.556 168.168 568.572 168.168C569.724 168.168 570.636 168.372 571.308 168.78C571.98 169.164 572.484 169.596 572.82 170.076C573.156 170.556 573.36 170.916 573.432 171.156H573.504V168.204H577.284V183H574.116L573.504 180.588H573.432C573.36 180.804 573.144 181.14 572.784 181.596C572.448 182.028 571.932 182.436 571.236 182.82C570.564 183.18 569.676 183.36 568.572 183.36ZM570.084 180.264C571.428 180.264 572.328 179.844 572.784 179.004C573.264 178.14 573.504 177.084 573.504 175.836C573.504 174.516 573.264 173.448 572.784 172.632C572.304 171.816 571.404 171.408 570.084 171.408C569.148 171.408 568.416 171.612 567.888 172.02C567.384 172.428 567.024 172.968 566.808 173.64C566.616 174.288 566.52 175.02 566.52 175.836C566.52 176.652 566.616 177.396 566.808 178.068C567.024 178.74 567.384 179.28 567.888 179.688C568.416 180.072 569.148 180.264 570.084 180.264ZM591.149 183V168.204H594.569L594.821 172.308C594.965 171.684 595.241 171.06 595.649 170.436C596.081 169.788 596.669 169.26 597.413 168.852C598.181 168.42 599.165 168.204 600.365 168.204H600.905V172.308H600.365C598.301 172.308 596.861 172.644 596.045 173.316C595.229 173.964 594.821 175.068 594.821 176.628V183H591.149ZM619.61 183C618.434 183 617.546 182.712 616.946 182.136C616.37 181.56 616.082 180.624 616.082 179.328V170.796H613.85V168.204C614.546 168.204 615.086 168.132 615.47 167.988C615.854 167.844 616.13 167.508 616.298 166.98C616.466 166.452 616.55 165.6 616.55 164.424H619.502V168.204H622.886V170.796H619.502V180.12H622.958V183H619.61ZM639.327 166.584C638.535 166.608 638.007 166.428 637.743 166.044C637.503 165.636 637.383 165.156 637.383 164.604C637.383 164.076 637.515 163.62 637.779 163.236C638.043 162.852 638.559 162.66 639.327 162.66C640.071 162.66 640.563 162.852 640.803 163.236C641.067 163.62 641.199 164.076 641.199 164.604C641.199 165.156 641.067 165.624 640.803 166.008C640.563 166.368 640.071 166.56 639.327 166.584ZM637.455 183V168.204H641.127V183H637.455ZM661.72 183.36C661.096 183.36 660.4 183.252 659.632 183.036C658.888 182.82 658.168 182.496 657.472 182.064C656.8 181.632 656.236 181.08 655.78 180.408C655.348 179.712 655.132 178.896 655.132 177.96H658.516C658.516 178.008 658.528 178.176 658.552 178.464C658.576 178.728 658.672 179.04 658.84 179.4C659.032 179.736 659.344 180.036 659.776 180.3C660.208 180.564 660.832 180.696 661.648 180.696C662.608 180.696 663.328 180.528 663.808 180.192C664.288 179.832 664.528 179.424 664.528 178.968C664.528 178.44 664.3 178.032 663.844 177.744C663.412 177.432 662.848 177.18 662.152 176.988C661.456 176.796 660.712 176.604 659.92 176.412C659.152 176.196 658.42 175.92 657.724 175.584C657.052 175.248 656.5 174.792 656.068 174.216C655.636 173.616 655.42 172.848 655.42 171.912C655.42 170.544 655.972 169.512 657.076 168.816C658.18 168.096 659.584 167.736 661.288 167.736C662.488 167.736 663.604 167.928 664.636 168.312C665.668 168.672 666.496 169.26 667.12 170.076C667.744 170.868 668.056 171.912 668.056 173.208H664.672C664.696 172.464 664.528 171.912 664.168 171.552C663.832 171.168 663.4 170.904 662.872 170.76C662.368 170.616 661.876 170.544 661.396 170.544C660.532 170.544 659.872 170.7 659.416 171.012C658.984 171.3 658.768 171.684 658.768 172.164C658.768 172.716 658.984 173.148 659.416 173.46C659.872 173.748 660.448 173.988 661.144 174.18C661.864 174.372 662.608 174.576 663.376 174.792C664.168 174.984 664.912 175.248 665.608 175.584C666.328 175.92 666.904 176.376 667.336 176.952C667.792 177.504 668.02 178.248 668.02 179.184C668.02 180.6 667.432 181.656 666.256 182.352C665.104 183.024 663.592 183.36 661.72 183.36ZM686.453 183C685.277 183 684.389 182.712 683.789 182.136C683.213 181.56 682.925 180.624 682.925 179.328V170.796H680.693V168.204C681.389 168.204 681.929 168.132 682.313 167.988C682.697 167.844 682.973 167.508 683.141 166.98C683.309 166.452 683.393 165.6 683.393 164.424H686.345V168.204H689.729V170.796H686.345V180.12H689.801V183H686.453Z" fill="white"/>
</g>
<g filter="url(#filter1_d_48_23)">
<path d="M4.664 118V114.8H18.744V24.688H4.664V21.488H48.696V24.688H35.896V114.8H48.696V118H4.664ZM58.808 118V114.8H103.352V118H58.808ZM74.04 116.08L37.176 68.848L49.336 57.968L95.544 116.08H74.04ZM33.08 78.32V71.792L75.832 23.792H81.336L33.08 78.32ZM59.064 24.688V21.488H95.288V24.688H59.064ZM152.309 116.08L128.757 45.68H128.245L127.349 41.968L133.493 19.952H137.333L169.461 116.08H152.309ZM89.077 118V114.8H119.797V118H89.077ZM114.037 87.792V84.592H155.509V87.792H114.037ZM136.949 118V114.8H180.853V118H136.949ZM100.085 116.08L133.493 19.952H137.333L129.525 41.968L104.309 116.08H100.085ZM207.803 68.464V64.624H218.427C223.547 64.624 227.686 64.0693 230.843 62.96C234.086 61.8507 236.432 59.76 237.883 56.688C239.419 53.5307 240.187 49.008 240.187 43.12C240.187 37.9147 239.632 34.032 238.523 31.472C237.414 28.8267 235.707 27.0347 233.403 26.096C231.184 25.1573 228.326 24.688 224.827 24.688H180.539V21.488H229.947C235.494 21.488 240.528 22.384 245.051 24.176C249.659 25.8827 253.286 28.3573 255.931 31.6C258.662 34.8427 260.027 38.8107 260.027 43.504C260.027 48.4533 258.363 52.8053 255.035 56.56C251.707 60.3147 246.928 63.2587 240.699 65.392C234.555 67.44 227.131 68.464 218.427 68.464H207.803ZM180.539 118V114.8H228.411V118H180.539ZM194.619 116.08V21.488H211.771V116.08H194.619ZM260.027 118C255.846 118 252.048 117.189 248.635 115.568C245.307 113.947 242.662 111.685 240.699 108.784C238.736 105.797 237.67 102.341 237.499 98.416L237.115 88.304C236.859 81.5627 235.11 76.5707 231.867 73.328C228.624 70.0853 224.486 68.464 219.451 68.464L229.179 67.056H233.915V67.568C237.584 68.4213 241.083 70.0853 244.411 72.56C247.824 75.0347 250.64 78.0213 252.859 81.52C255.078 85.0187 256.187 88.816 256.187 92.912V99.568C256.187 105.456 256.827 109.467 258.107 111.6C259.387 113.733 261.691 114.8 265.019 114.8H269.883V118H260.027ZM316.423 119.536C310.194 119.536 304.391 118.213 299.015 115.568C293.639 112.923 288.903 109.296 284.807 104.688C280.796 99.9947 277.639 94.6613 275.335 88.688C273.116 82.7147 272.007 76.4 272.007 69.744C272.007 63.088 273.116 56.7733 275.335 50.8C277.639 44.8267 280.796 39.536 284.807 34.928C288.903 30.2347 293.639 26.5653 299.015 23.92C304.391 21.2747 310.194 19.952 316.423 19.952C322.652 19.952 328.455 21.2747 333.831 23.92C339.207 26.5653 343.9 30.2347 347.911 34.928C352.007 39.536 355.164 44.8267 357.383 50.8C359.687 56.7733 360.839 63.088 360.839 69.744C360.839 76.4 359.687 82.7147 357.383 88.688C355.164 94.6613 352.007 99.9947 347.911 104.688C343.9 109.296 339.207 112.923 333.831 115.568C328.455 118.213 322.652 119.536 316.423 119.536ZM316.423 115.696C320.775 115.696 324.444 115.013 327.431 113.648C330.503 112.197 332.978 109.765 334.855 106.352C336.818 102.939 338.226 98.2453 339.079 92.272C339.932 86.2987 340.359 78.7467 340.359 69.616C340.359 60.4853 339.932 52.9333 339.079 46.96C338.226 40.9867 336.818 36.336 334.855 33.008C332.978 29.5947 330.503 27.2053 327.431 25.84C324.444 24.4747 320.775 23.792 316.423 23.792C312.071 23.792 308.359 24.4747 305.287 25.84C302.3 27.2053 299.826 29.5947 297.863 33.008C295.986 36.4213 294.62 41.1147 293.767 47.088C292.914 53.0613 292.487 60.6133 292.487 69.744C292.487 78.8747 292.914 86.4267 293.767 92.4C294.62 98.3733 295.986 103.067 297.863 106.48C299.826 109.893 302.3 112.283 305.287 113.648C308.359 115.013 312.071 115.696 316.423 115.696ZM368.164 118V114.8H422.308C426.575 114.8 430.159 113.563 433.06 111.088C436.047 108.613 438.351 105.328 439.972 101.232C441.593 97.136 442.447 92.6987 442.532 87.92H447.012V118H368.164ZM383.268 116.08V21.488H400.42V116.08H383.268ZM368.164 24.688V21.488H415.908V24.688H368.164ZM466.994 116.08V21.488H484.146V116.08H466.994ZM452.914 118V114.8H498.226V118H452.914ZM452.914 24.688V21.488H498.226V24.688H452.914ZM576.806 119.536L520.998 30.576H520.486V114.8H534.566V118H501.414V114.8H515.494V24.688H501.414V21.488H536.102L575.27 83.696H575.782V24.688H562.982V21.488H593.574V24.688H580.774V119.536H576.806ZM655.684 116.08L632.132 45.68H631.62L630.724 41.968L636.868 19.952H640.708L672.836 116.08H655.684ZM592.452 118V114.8H623.172V118H592.452ZM617.412 87.792V84.592H658.884V87.792H617.412ZM640.324 118V114.8H684.228V118H640.324ZM603.46 116.08L636.868 19.952H640.708L632.9 41.968L607.684 116.08H603.46ZM4.664 326V322.8H18.744V232.688H4.664V229.488H48.696V232.688H35.896V322.8H48.696V326H4.664ZM58.808 326V322.8H103.352V326H58.808ZM74.04 324.08L37.176 276.848L49.336 265.968L95.544 324.08H74.04ZM33.08 286.32V279.792L75.832 231.792H81.336L33.08 286.32ZM59.064 232.688V229.488H95.288V232.688H59.064ZM141.673 327.536C135.444 327.536 129.641 326.213 124.265 323.568C118.889 320.923 114.153 317.296 110.057 312.688C106.046 307.995 102.889 302.661 100.585 296.688C98.3663 290.715 97.257 284.4 97.257 277.744C97.257 271.088 98.3663 264.773 100.585 258.8C102.889 252.827 106.046 247.536 110.057 242.928C114.153 238.235 118.889 234.565 124.265 231.92C129.641 229.275 135.444 227.952 141.673 227.952C147.902 227.952 153.705 229.275 159.081 231.92C164.457 234.565 169.15 238.235 173.161 242.928C177.257 247.536 180.414 252.827 182.633 258.8C184.937 264.773 186.089 271.088 186.089 277.744C186.089 284.4 184.937 290.715 182.633 296.688C180.414 302.661 177.257 307.995 173.161 312.688C169.15 317.296 164.457 320.923 159.081 323.568C153.705 326.213 147.902 327.536 141.673 327.536ZM141.673 323.696C146.025 323.696 149.694 323.013 152.681 321.648C155.753 320.197 158.228 317.765 160.105 314.352C162.068 310.939 163.476 306.245 164.329 300.272C165.182 294.299 165.609 286.747 165.609 277.616C165.609 268.485 165.182 260.933 164.329 254.96C163.476 248.987 162.068 244.336 160.105 241.008C158.228 237.595 155.753 235.205 152.681 233.84C149.694 232.475 146.025 231.792 141.673 231.792C137.321 231.792 133.609 232.475 130.537 233.84C127.55 235.205 125.076 237.595 123.113 241.008C121.236 244.421 119.87 249.115 119.017 255.088C118.164 261.061 117.737 268.613 117.737 277.744C117.737 286.875 118.164 294.427 119.017 300.4C119.87 306.373 121.236 311.067 123.113 314.48C125.076 317.893 127.55 320.283 130.537 321.648C133.609 323.013 137.321 323.696 141.673 323.696ZM192.834 325.104V321.904L246.338 233.2V232.432L267.074 231.664V233.968L213.954 322.288V323.696L192.834 325.104ZM192.834 326V322.8H242.37C246.637 322.8 250.221 321.52 253.122 318.96C256.109 316.315 258.413 312.859 260.034 308.592C261.655 304.24 262.509 299.589 262.594 294.64H267.074V326H192.834ZM197.954 255.728V229.488H267.074V232.688H222.658C218.477 232.688 214.893 233.755 211.906 235.888C208.919 238.021 206.615 240.837 204.994 244.336C203.373 247.749 202.519 251.547 202.434 255.728H197.954ZM288.369 324.08V229.488H305.521V324.08H288.369ZM274.289 326V322.8H319.601V326H274.289ZM274.289 232.688V229.488H319.601V232.688H274.289ZM322.789 326V322.8H336.869V232.688H322.789V229.488H366.821V232.688H354.021V322.8H366.821V326H322.789ZM376.933 326V322.8H421.477V326H376.933ZM392.165 324.08L355.301 276.848L367.461 265.968L413.669 324.08H392.165ZM351.205 286.32V279.792L393.957 231.792H399.461L351.205 286.32ZM377.189 232.688V229.488H413.413V232.688H377.189ZM459.798 327.536C453.569 327.536 447.766 326.213 442.39 323.568C437.014 320.923 432.278 317.296 428.182 312.688C424.171 307.995 421.014 302.661 418.71 296.688C416.491 290.715 415.382 284.4 415.382 277.744C415.382 271.088 416.491 264.773 418.71 258.8C421.014 252.827 424.171 247.536 428.182 242.928C432.278 238.235 437.014 234.565 442.39 231.92C447.766 229.275 453.569 227.952 459.798 227.952C466.027 227.952 471.83 229.275 477.206 231.92C482.582 234.565 487.275 238.235 491.286 242.928C495.382 247.536 498.539 252.827 500.758 258.8C503.062 264.773 504.214 271.088 504.214 277.744C504.214 284.4 503.062 290.715 500.758 296.688C498.539 302.661 495.382 307.995 491.286 312.688C487.275 317.296 482.582 320.923 477.206 323.568C471.83 326.213 466.027 327.536 459.798 327.536ZM459.798 323.696C464.15 323.696 467.819 323.013 470.806 321.648C473.878 320.197 476.353 317.765 478.23 314.352C480.193 310.939 481.601 306.245 482.454 300.272C483.307 294.299 483.734 286.747 483.734 277.616C483.734 268.485 483.307 260.933 482.454 254.96C481.601 248.987 480.193 244.336 478.23 241.008C476.353 237.595 473.878 235.205 470.806 233.84C467.819 232.475 464.15 231.792 459.798 231.792C455.446 231.792 451.734 232.475 448.662 233.84C445.675 235.205 443.201 237.595 441.238 241.008C439.361 244.421 437.995 249.115 437.142 255.088C436.289 261.061 435.862 268.613 435.862 277.744C435.862 286.875 436.289 294.427 437.142 300.4C437.995 306.373 439.361 311.067 441.238 314.48C443.201 317.893 445.675 320.283 448.662 321.648C451.734 323.013 455.446 323.696 459.798 323.696ZM545.029 327.536L512.261 231.408H529.413L553.221 301.168H553.733L555.013 305.52L548.869 327.536H545.029ZM545.029 327.536L552.453 304.88L577.413 231.408H581.637L548.869 327.536H545.029ZM500.357 232.688V229.488H544.773V232.688H500.357ZM561.925 232.688V229.488H593.157V232.688H561.925ZM639.309 324.08L615.757 253.68H615.245L614.349 249.968L620.493 227.952H624.333L656.461 324.08H639.309ZM576.077 326V322.8H606.797V326H576.077ZM601.037 295.792V292.592H642.509V295.792H601.037ZM623.949 326V322.8H667.853V326H623.949ZM587.085 324.08L620.493 227.952H624.333L616.525 249.968L591.309 324.08H587.085Z" fill="url(#paint0_linear_48_23)"/>
</g>
<defs>
<filter id="filter0_d_48_23" x="0.187988" y="161.364" width="693.613" height="36.224" filterUnits="userSpaceOnUse" color-interpolation-filters="sRGB">
<feFlood flood-opacity="0" result="BackgroundImageFix"/>
<feColorMatrix in="SourceAlpha" type="matrix" values="0 0 0 0 0 0 0 0 0 0 0 0 0 0 0 0 0 0 127 0" result="hardAlpha"/>
<feOffset dy="4"/>
<feGaussianBlur stdDeviation="2"/>
<feComposite in2="hardAlpha" operator="out"/>
<feColorMatrix type="matrix" values="0 0 0 0 0 0 0 0 0 0 0 0 0 0 0 0 0 0 1 0"/>
<feBlend mode="normal" in2="BackgroundImageFix" result="effect1_dropShadow_48_23"/>
<feBlend mode="normal" in="SourceGraphic" in2="effect1_dropShadow_48_23" result="shape"/>
</filter>
<filter id="filter1_d_48_23" x="0.664062" y="19.952" width="687.564" height="315.584" filterUnits="userSpaceOnUse" color-interpolation-filters="sRGB">
<feFlood flood-opacity="0" result="BackgroundImageFix"/>
<feColorMatrix in="SourceAlpha" type="matrix" values="0 0 0 0 0 0 0 0 0 0 0 0 0 0 0 0 0 0 127 0" result="hardAlpha"/>
<feOffset dy="4"/>
<feGaussianBlur stdDeviation="2"/>
<feComposite in2="hardAlpha" operator="out"/>
<feColorMatrix type="matrix" values="0 0 0 0 0 0 0 0 0 0 0 0 0 0 0 0 0 0 1 0"/>
<feBlend mode="normal" in2="BackgroundImageFix" result="effect1_dropShadow_48_23"/>
<feBlend mode="normal" in="SourceGraphic" in2="effect1_dropShadow_48_23" result="shape"/>
</filter>
<linearGradient id="paint0_linear_48_23" x1="206" y1="-27.5" x2="206" y2="440" gradientUnits="userSpaceOnUse">
<stop offset="0.607617" stop-color="#C3C3C3"/>
<stop offset="0.884608" stop-color="#5D5D5D"/>
</linearGradient>
</defs>
</svg>
