<svg width="545" height="58" viewBox="0 0 545 58" fill="none" xmlns="http://www.w3.org/2000/svg">
<g filter="url(#filter0_d_50_2)">
<path d="M29.6875 22.375C29.6875 17.7083 30.875 14.3333 33.25 12.25C35.6875 10.1667 39.5938 9.125 44.9688 9.125H46.875V20.9375C46.875 30.625 44.1042 36.8333 38.5625 39.5625C36.625 40.5208 34.3021 41 31.5938 41H29.6875V22.375ZM22.3125 41C17.0833 41 13.1875 39.1771 10.625 35.5312C8.25 32.1562 7.0625 27.2917 7.0625 20.9375V9.125H8.96875C14.3438 9.125 18.25 10.1667 20.6875 12.25C23.0625 14.3333 24.25 17.7083 24.25 22.375V41H22.3125ZM77.625 22.375C77.625 17.7083 78.8125 14.3333 81.1875 12.25C83.625 10.1667 87.5312 9.125 92.9062 9.125H94.8125V20.9375C94.8125 30.625 92.0417 36.8333 86.5 39.5625C84.5625 40.5208 82.2396 41 79.5312 41H77.625V22.375ZM70.25 41C65.0208 41 61.125 39.1771 58.5625 35.5312C56.1875 32.1562 55 27.2917 55 20.9375V9.125H56.9062C62.2812 9.125 66.1875 10.1667 68.625 12.25C71 14.3333 72.1875 17.7083 72.1875 22.375V41H70.25ZM125.562 22.375C125.562 17.7083 126.75 14.3333 129.125 12.25C131.562 10.1667 135.469 9.125 140.844 9.125H142.75V20.9375C142.75 30.625 139.979 36.8333 134.438 39.5625C132.5 40.5208 130.177 41 127.469 41H125.562V22.375ZM118.188 41C112.958 41 109.062 39.1771 106.5 35.5312C104.125 32.1562 102.938 27.2917 102.938 20.9375V9.125H104.844C110.219 9.125 114.125 10.1667 116.562 12.25C118.938 14.3333 120.125 17.7083 120.125 22.375V41H118.188ZM173.5 22.375C173.5 17.7083 174.688 14.3333 177.062 12.25C179.5 10.1667 183.406 9.125 188.781 9.125H190.688V20.9375C190.688 30.625 187.917 36.8333 182.375 39.5625C180.438 40.5208 178.115 41 175.406 41H173.5V22.375ZM166.125 41C160.896 41 157 39.1771 154.438 35.5312C152.062 32.1562 150.875 27.2917 150.875 20.9375V9.125H152.781C158.156 9.125 162.062 10.1667 164.5 12.25C166.875 14.3333 168.062 17.7083 168.062 22.375V41H166.125ZM221.438 22.375C221.438 17.7083 222.625 14.3333 225 12.25C227.438 10.1667 231.344 9.125 236.719 9.125H238.625V20.9375C238.625 30.625 235.854 36.8333 230.312 39.5625C228.375 40.5208 226.052 41 223.344 41H221.438V22.375ZM214.062 41C208.833 41 204.938 39.1771 202.375 35.5312C200 32.1562 198.812 27.2917 198.812 20.9375V9.125H200.719C206.094 9.125 210 10.1667 212.438 12.25C214.812 14.3333 216 17.7083 216 22.375V41H214.062ZM269.375 22.375C269.375 17.7083 270.562 14.3333 272.938 12.25C275.375 10.1667 279.281 9.125 284.656 9.125H286.562V20.9375C286.562 30.625 283.792 36.8333 278.25 39.5625C276.312 40.5208 273.99 41 271.281 41H269.375V22.375ZM262 41C256.771 41 252.875 39.1771 250.312 35.5312C247.938 32.1562 246.75 27.2917 246.75 20.9375V9.125H248.656C254.031 9.125 257.938 10.1667 260.375 12.25C262.75 14.3333 263.938 17.7083 263.938 22.375V41H262ZM317.312 22.375C317.312 17.7083 318.5 14.3333 320.875 12.25C323.312 10.1667 327.219 9.125 332.594 9.125H334.5V20.9375C334.5 30.625 331.729 36.8333 326.188 39.5625C324.25 40.5208 321.927 41 319.219 41H317.312V22.375ZM309.938 41C304.708 41 300.812 39.1771 298.25 35.5312C295.875 32.1562 294.688 27.2917 294.688 20.9375V9.125H296.594C301.969 9.125 305.875 10.1667 308.312 12.25C310.688 14.3333 311.875 17.7083 311.875 22.375V41H309.938ZM365.25 22.375C365.25 17.7083 366.438 14.3333 368.812 12.25C371.25 10.1667 375.156 9.125 380.531 9.125H382.438V20.9375C382.438 30.625 379.667 36.8333 374.125 39.5625C372.188 40.5208 369.865 41 367.156 41H365.25V22.375ZM357.875 41C352.646 41 348.75 39.1771 346.188 35.5312C343.812 32.1562 342.625 27.2917 342.625 20.9375V9.125H344.531C349.906 9.125 353.812 10.1667 356.25 12.25C358.625 14.3333 359.812 17.7083 359.812 22.375V41H357.875ZM413.188 22.375C413.188 17.7083 414.375 14.3333 416.75 12.25C419.188 10.1667 423.094 9.125 428.469 9.125H430.375V20.9375C430.375 30.625 427.604 36.8333 422.062 39.5625C420.125 40.5208 417.802 41 415.094 41H413.188V22.375ZM405.812 41C400.583 41 396.688 39.1771 394.125 35.5312C391.75 32.1562 390.562 27.2917 390.562 20.9375V9.125H392.469C397.844 9.125 401.75 10.1667 404.188 12.25C406.562 14.3333 407.75 17.7083 407.75 22.375V41H405.812ZM461.125 22.375C461.125 17.7083 462.312 14.3333 464.688 12.25C467.125 10.1667 471.031 9.125 476.406 9.125H478.312V20.9375C478.312 30.625 475.542 36.8333 470 39.5625C468.062 40.5208 465.74 41 463.031 41H461.125V22.375ZM453.75 41C448.521 41 444.625 39.1771 442.062 35.5312C439.688 32.1562 438.5 27.2917 438.5 20.9375V9.125H440.406C445.781 9.125 449.688 10.1667 452.125 12.25C454.5 14.3333 455.688 17.7083 455.688 22.375V41H453.75ZM509.062 22.375C509.062 17.7083 510.25 14.3333 512.625 12.25C515.062 10.1667 518.969 9.125 524.344 9.125H526.25V20.9375C526.25 30.625 523.479 36.8333 517.938 39.5625C516 40.5208 513.677 41 510.969 41H509.062V22.375ZM501.688 41C496.458 41 492.562 39.1771 490 35.5312C487.625 32.1562 486.438 27.2917 486.438 20.9375V9.125H488.344C493.719 9.125 497.625 10.1667 500.062 12.25C502.438 14.3333 503.625 17.7083 503.625 22.375V41H501.688Z" fill="white"/>
</g>
<defs>
<filter id="filter0_d_50_2" x="0.3625" y="0.425" width="544.587" height="57.275" filterUnits="userSpaceOnUse" color-interpolation-filters="sRGB">
<feFlood flood-opacity="0" result="BackgroundImageFix"/>
<feColorMatrix in="SourceAlpha" type="matrix" values="0 0 0 0 0 0 0 0 0 0 0 0 0 0 0 0 0 0 127 0" result="hardAlpha"/>
<feOffset dx="6" dy="4"/>
<feGaussianBlur stdDeviation="6.35"/>
<feComposite in2="hardAlpha" operator="out"/>
<feColorMatrix type="matrix" values="0 0 0 0 0 0 0 0 0 0 0 0 0 0 0 0 0 0 1 0"/>
<feBlend mode="normal" in2="BackgroundImageFix" result="effect1_dropShadow_50_2"/>
<feBlend mode="normal" in="SourceGraphic" in2="effect1_dropShadow_50_2" result="shape"/>
</filter>
</defs>
</svg>
